<svg viewBox="0 0 11 10" fill="none" xmlns="http://www.w3.org/2000/svg" class="size-6">
<path d="M4.99268 7.84725C5.04512 7.89951 5.08673 7.96161 5.11512 8.02998C5.14351 8.09835 5.15812 8.17166 5.15812 8.24569C5.15812 8.31972 5.14351 8.39303 5.11512 8.4614C5.08673 8.52977 5.04512 8.59187 4.99268 8.64413L4.75268 8.88413C4.49791 9.13984 4.19498 9.34251 3.8614 9.48041C3.52782 9.61832 3.1702 9.68873 2.80924 9.68756C2.26565 9.68774 1.73422 9.52668 1.28218 9.22475C0.83014 8.92283 0.47781 8.49362 0.269762 7.99141C0.0617142 7.48921 0.00729688 6.93658 0.113395 6.40344C0.219493 5.8703 0.481338 5.38061 0.865805 4.99631L2.49471 3.36741C2.84118 3.02099 3.27394 2.77347 3.7482 2.65048C4.22246 2.52749 4.72097 2.53349 5.19213 2.66787C5.66328 2.80225 6.08996 3.06011 6.42799 3.41477C6.76602 3.76944 7.0031 4.208 7.11471 4.68506C7.1332 4.7576 7.13702 4.8331 7.12595 4.90713C7.11488 4.98116 7.08915 5.05224 7.05026 5.1162C7.01138 5.18015 6.96011 5.23571 6.89948 5.2796C6.83885 5.3235 6.77006 5.35485 6.69716 5.37182C6.62425 5.38879 6.5487 5.39104 6.47491 5.37843C6.40113 5.36583 6.3306 5.33862 6.26746 5.29841C6.20433 5.2582 6.14985 5.2058 6.10723 5.14426C6.0646 5.08273 6.03469 5.01331 6.01924 4.94006C5.95302 4.65845 5.81278 4.39964 5.61302 4.19038C5.41327 3.98113 5.16125 3.82902 4.88302 3.74978C4.60479 3.67055 4.31044 3.66706 4.03041 3.73969C3.75038 3.81231 3.49483 3.95841 3.29018 4.16288L1.66127 5.79178C1.43422 6.01866 1.27954 6.30777 1.2168 6.62255C1.15406 6.93734 1.18608 7.26366 1.30881 7.56025C1.43154 7.85684 1.63946 8.11037 1.90629 8.28878C2.17312 8.46719 2.48686 8.56247 2.80784 8.56256C3.02111 8.56319 3.23239 8.5215 3.42944 8.43991C3.62649 8.35833 3.8054 8.23846 3.9558 8.08725L4.19534 7.84725C4.2476 7.79474 4.30973 7.75307 4.37814 7.72464C4.44656 7.69621 4.51992 7.68157 4.59401 7.68157C4.6681 7.68157 4.74146 7.69621 4.80987 7.72464C4.87829 7.75307 4.94041 7.79474 4.99268 7.84725ZM10.1325 1.11741C9.61697 0.602025 8.91783 0.3125 8.18885 0.3125C7.45987 0.3125 6.76073 0.602025 6.24518 1.11741L6.00565 1.35694C5.89998 1.46261 5.84061 1.60593 5.84061 1.75538C5.84061 1.90482 5.89998 2.04814 6.00565 2.15381C6.11132 2.25949 6.25464 2.31885 6.40409 2.31885C6.55353 2.31885 6.69685 2.25949 6.80252 2.15381L7.04252 1.91381C7.34711 1.60923 7.76021 1.43812 8.19096 1.43812C8.62171 1.43812 9.03481 1.60923 9.3394 1.91381C9.64398 2.2184 9.8151 2.6315 9.8151 3.06225C9.8151 3.493 9.64398 3.9061 9.3394 4.21069L7.70768 5.83725C7.55727 5.98846 7.37837 6.10833 7.18131 6.18991C6.98426 6.2715 6.77298 6.31319 6.55971 6.31256C6.19385 6.3123 5.8388 6.18846 5.55215 5.96111C5.2655 5.73377 5.06406 5.41625 4.98049 5.06006C4.94668 4.91473 4.85652 4.78879 4.72984 4.70994C4.60317 4.63108 4.45035 4.60578 4.30502 4.6396C4.15969 4.67341 4.03375 4.76357 3.9549 4.89025C3.87604 5.01692 3.85074 5.16973 3.88456 5.31506C4.0257 5.91829 4.36648 6.45614 4.85163 6.8414C5.33678 7.22667 5.93785 7.43674 6.55737 7.43756H6.55971C6.92084 7.43855 7.27859 7.36793 7.61225 7.22978C7.94592 7.09163 8.24888 6.8887 8.50362 6.63272L10.1325 5.00381C10.3877 4.74865 10.5902 4.44571 10.7283 4.11229C10.8665 3.77887 10.9375 3.42151 10.9375 3.06061C10.9375 2.69971 10.8665 2.34235 10.7283 2.00893C10.5902 1.67552 10.3877 1.37257 10.1325 1.11741Z" fill="black"/>
</svg>
