<svg viewBox="0 0 11 12" fill="none" xmlns="http://www.w3.org/2000/svg" class="size-6">
<path d="M2.85992 8.51461C3.0943 8.74898 3.5 8.58328 3.5 8.24953V3.75C3.5 3.41438 3.09383 3.25055 2.85992 3.48492L0.609922 5.73492C0.539649 5.80524 0.500174 5.90059 0.500174 6C0.500174 6.09941 0.539649 6.19476 0.609922 6.26508L2.85992 8.51461ZM10.625 9.75H0.875C0.775544 9.75 0.680161 9.78951 0.609835 9.85983C0.539509 9.93016 0.5 10.0255 0.5 10.125L0.5 10.875C0.5 10.9745 0.539509 11.0698 0.609835 11.1402C0.680161 11.2105 0.775544 11.25 0.875 11.25H10.625C10.7245 11.25 10.8198 11.2105 10.8902 11.1402C10.9605 11.0698 11 10.9745 11 10.875V10.125C11 10.0255 10.9605 9.93016 10.8902 9.85983C10.8198 9.78951 10.7245 9.75 10.625 9.75ZM10.6993 6.75H5.3007C5.26121 6.74997 5.22209 6.75773 5.18559 6.77283C5.1491 6.78793 5.11593 6.81008 5.08801 6.83801C5.06008 6.86593 5.03793 6.8991 5.02283 6.93559C5.00773 6.97209 4.99997 7.01121 5 7.0507V7.9493C4.99997 7.98879 5.00773 8.02791 5.02283 8.06441C5.03793 8.1009 5.06008 8.13407 5.08801 8.16199C5.11593 8.18992 5.1491 8.21207 5.18559 8.22717C5.22209 8.24227 5.26121 8.25003 5.3007 8.25H10.6993C10.7388 8.25003 10.7779 8.24227 10.8144 8.22717C10.8509 8.21207 10.8841 8.18992 10.912 8.16199C10.9399 8.13407 10.9621 8.1009 10.9772 8.06441C10.9923 8.02791 11 7.98879 11 7.9493V7.0507C11 7.01121 10.9923 6.97209 10.9772 6.93559C10.9621 6.8991 10.9399 6.86593 10.912 6.83801C10.8841 6.81008 10.8509 6.78793 10.8144 6.77283C10.7779 6.75773 10.7388 6.74997 10.6993 6.75ZM10.6993 3.75H5.3007C5.26121 3.74997 5.22209 3.75773 5.18559 3.77283C5.1491 3.78793 5.11593 3.81008 5.08801 3.83801C5.06008 3.86593 5.03793 3.8991 5.02283 3.93559C5.00773 3.97209 4.99997 4.01121 5 4.0507V4.9493C4.99997 4.98879 5.00773 5.02791 5.02283 5.06441C5.03793 5.1009 5.06008 5.13407 5.08801 5.16199C5.11593 5.18992 5.1491 5.21207 5.18559 5.22717C5.22209 5.24227 5.26121 5.25003 5.3007 5.25H10.6993C10.7388 5.25003 10.7779 5.24227 10.8144 5.22717C10.8509 5.21207 10.8841 5.18992 10.912 5.16199C10.9399 5.13407 10.9621 5.1009 10.9772 5.06441C10.9923 5.02791 11 4.98879 11 4.9493V4.0507C11 4.01121 10.9923 3.97209 10.9772 3.93559C10.9621 3.8991 10.9399 3.86593 10.912 3.83801C10.8841 3.81008 10.8509 3.78793 10.8144 3.77283C10.7779 3.75773 10.7388 3.74997 10.6993 3.75ZM10.625 0.75H0.875C0.775544 0.75 0.680161 0.789509 0.609835 0.859835C0.539509 0.930161 0.5 1.02554 0.5 1.125L0.5 1.875C0.5 1.97446 0.539509 2.06984 0.609835 2.14016C0.680161 2.21049 0.775544 2.25 0.875 2.25H10.625C10.7245 2.25 10.8198 2.21049 10.8902 2.14016C10.9605 2.06984 11 1.97446 11 1.875V1.125C11 1.02554 10.9605 0.930161 10.8902 0.859835C10.8198 0.789509 10.7245 0.75 10.625 0.75Z" fill="black"/>
</svg>
