<svg viewBox="0 0 12 12" fill="none" xmlns="http://www.w3.org/2000/svg" class="size-6">
<path d="M9.18563 4.43563C9.45887 4.15273 9.61006 3.77383 9.60665 3.38053C9.60323 2.98724 9.44547 2.61102 9.16736 2.33291C8.88925 2.05479 8.51303 1.89704 8.11974 1.89362C7.72644 1.89021 7.34754 2.0414 7.06464 2.31463L6.43688 2.94238C6.38497 2.99608 6.32288 3.03891 6.25424 3.06835C6.1856 3.0978 6.11178 3.11328 6.03709 3.1139C5.9624 3.11451 5.88834 3.10024 5.81923 3.07193C5.75011 3.04361 5.68733 3.00181 5.63454 2.94898C5.58175 2.89614 5.54001 2.83331 5.51176 2.76417C5.48351 2.69503 5.46931 2.62095 5.47 2.54626C5.47068 2.47158 5.48623 2.39777 5.51574 2.32916C5.54525 2.26055 5.58814 2.1985 5.64188 2.14663L6.26888 1.51888C6.51265 1.27512 6.80204 1.08175 7.12054 0.949826C7.43904 0.817901 7.7804 0.75 8.12513 0.75C8.46987 0.75 8.81123 0.817901 9.12973 0.949826C9.44823 1.08175 9.73762 1.27512 9.98139 1.51888C10.2252 1.76265 10.4185 2.05204 10.5504 2.37054C10.6824 2.68903 10.7503 3.0304 10.7503 3.37513C10.7503 3.71987 10.6824 4.06123 10.5504 4.37973C10.4185 4.69822 10.2252 4.98762 9.98139 5.23138L9.83513 5.37688C9.7285 5.47624 9.58747 5.53034 9.44174 5.52776C9.29602 5.52519 9.15698 5.46616 9.05392 5.3631C8.95086 5.26004 8.89182 5.121 8.88925 4.97528C8.88668 4.82955 8.94078 4.68851 9.04014 4.58188L9.18563 4.43563ZM7.78313 7.04713C7.76669 7.06779 7.74917 7.08757 7.73063 7.10638C7.25813 7.57888 6.62963 7.93738 5.97338 8.05363C5.30588 8.17288 4.57838 8.04088 4.01888 7.48138C3.96362 7.42989 3.91929 7.36779 3.88855 7.29879C3.8578 7.22979 3.84127 7.1553 3.83994 7.07978C3.83861 7.00425 3.8525 6.92923 3.88079 6.85918C3.90908 6.78914 3.95119 6.72552 4.00461 6.6721C4.05802 6.61869 4.12165 6.57658 4.19169 6.54829C4.26173 6.52 4.33675 6.50611 4.41228 6.50744C4.4878 6.50877 4.56229 6.5253 4.63129 6.55605C4.70029 6.58679 4.76239 6.63112 4.81388 6.68638C5.06063 6.93163 5.38913 7.01488 5.77688 6.94663C6.14663 6.88063 6.54038 6.67663 6.86063 6.38263L5.92538 5.70988L5.91788 5.70388L5.69663 5.54488C4.99163 5.09713 4.20863 5.17063 3.68963 5.68963L1.81463 7.56463C1.67137 7.703 1.5571 7.86852 1.47848 8.05153C1.39987 8.23453 1.35849 8.43136 1.35676 8.63053C1.35503 8.8297 1.39298 9.02722 1.4684 9.21156C1.54382 9.39591 1.6552 9.56339 1.79604 9.70423C1.93688 9.84506 2.10436 9.95644 2.2887 10.0319C2.47305 10.1073 2.67057 10.1452 2.86974 10.1435C3.06891 10.1418 3.26574 10.1004 3.44874 10.0218C3.63175 9.94317 3.79726 9.8289 3.93563 9.68563L4.56338 9.05863C4.67002 8.95927 4.81105 8.90518 4.95678 8.90775C5.1025 8.91032 5.24154 8.96936 5.3446 9.07242C5.44766 9.17548 5.50669 9.31452 5.50927 9.46024C5.51184 9.60597 5.45774 9.747 5.35838 9.85363L4.73138 10.4814C4.48762 10.7251 4.19823 10.9185 3.87973 11.0504C3.56123 11.1824 3.21987 11.2503 2.87513 11.2503C2.17891 11.2503 1.51119 10.9737 1.01888 10.4814C0.526576 9.98908 0.25 9.32136 0.25 8.62513C0.25 7.9289 0.526576 7.26119 1.01888 6.76888L2.89388 4.89388C3.17883 4.60643 3.52638 4.38876 3.90938 4.25788L1.23413 2.33188C1.113 2.24476 1.03143 2.11308 1.00738 1.96582C0.983327 1.81856 1.01876 1.66777 1.10588 1.54663C1.19301 1.4255 1.32468 1.34393 1.47195 1.31988C1.61921 1.29583 1.77 1.33126 1.89113 1.41838L6.33863 4.62088C6.42463 4.67688 6.50838 4.73688 6.58988 4.80088L11.2661 8.16838C11.3261 8.21152 11.377 8.26605 11.4159 8.32886C11.4548 8.39167 11.481 8.46153 11.4929 8.53445C11.5048 8.60736 11.5022 8.68191 11.4853 8.75384C11.4684 8.82576 11.4375 8.89365 11.3944 8.95363C11.3512 9.01361 11.2967 9.06451 11.2339 9.10342C11.1711 9.14233 11.1012 9.16848 11.0283 9.18039C10.9554 9.1923 10.8809 9.18973 10.8089 9.17283C10.737 9.15593 10.6691 9.12502 10.6091 9.08188L7.78313 7.04713Z" fill="black"/>
</svg>
