<svg viewBox="0 0 11 11" fill="none" xmlns="http://www.w3.org/2000/svg" class="size-6">
<path d="M0.300703 7.5H6.4493C6.48879 7.50003 6.52791 7.49227 6.56441 7.47717C6.6009 7.46207 6.63407 7.43992 6.66199 7.41199C6.68992 7.38407 6.71207 7.3509 6.72717 7.31441C6.74227 7.27791 6.75003 7.23879 6.75 7.1993V6.3007C6.75003 6.26121 6.74227 6.22209 6.72717 6.18559C6.71207 6.1491 6.68992 6.11593 6.66199 6.08801C6.63407 6.06008 6.6009 6.03793 6.56441 6.02283C6.52791 6.00773 6.48879 5.99997 6.4493 6H0.300703C0.261206 5.99997 0.22209 6.00773 0.185593 6.02283C0.149096 6.03793 0.115934 6.06008 0.0880053 6.08801C0.0600763 6.11593 0.0379278 6.1491 0.022827 6.18559C0.00772615 6.22209 -3.07299e-05 6.26121 9.14897e-08 6.3007V7.1993C-3.07299e-05 7.23879 0.00772615 7.27791 0.022827 7.31441C0.0379278 7.3509 0.0600763 7.38407 0.0880053 7.41199C0.115934 7.43992 0.149096 7.46207 0.185593 7.47717C0.22209 7.49227 0.261206 7.50003 0.300703 7.5ZM0.300703 1.5H6.4493C6.48879 1.50003 6.52791 1.49227 6.56441 1.47717C6.6009 1.46207 6.63407 1.43992 6.66199 1.41199C6.68992 1.38407 6.71207 1.3509 6.72717 1.31441C6.74227 1.27791 6.75003 1.23879 6.75 1.1993V0.300703C6.75003 0.261206 6.74227 0.22209 6.72717 0.185593C6.71207 0.149096 6.68992 0.115934 6.66199 0.0880052C6.63407 0.0600762 6.6009 0.0379278 6.56441 0.0228269C6.52791 0.00772611 6.48879 -3.07299e-05 6.4493 9.14901e-08H0.300703C0.261206 -3.07299e-05 0.22209 0.00772611 0.185593 0.0228269C0.149096 0.0379278 0.115934 0.0600762 0.0880053 0.0880052C0.0600763 0.115934 0.0379278 0.149096 0.022827 0.185593C0.00772615 0.22209 -3.07299e-05 0.261206 9.14897e-08 0.300703V1.1993C-3.07299e-05 1.23879 0.00772615 1.27791 0.022827 1.31441C0.0379278 1.3509 0.0600763 1.38407 0.0880053 1.41199C0.115934 1.43992 0.149096 1.46207 0.185593 1.47717C0.22209 1.49227 0.261206 1.50003 0.300703 1.5ZM10.125 3H0.375C0.275544 3 0.180161 3.03951 0.109835 3.10984C0.0395089 3.18016 9.14897e-08 3.27554 9.14897e-08 3.375V4.125C9.14897e-08 4.22446 0.0395089 4.31984 0.109835 4.39016C0.180161 4.46049 0.275544 4.5 0.375 4.5H10.125C10.2245 4.5 10.3198 4.46049 10.3902 4.39016C10.4605 4.31984 10.5 4.22446 10.5 4.125V3.375C10.5 3.27554 10.4605 3.18016 10.3902 3.10984C10.3198 3.03951 10.2245 3 10.125 3ZM10.125 9H0.375C0.275544 9 0.180161 9.03951 0.109835 9.10983C0.0395089 9.18016 9.14897e-08 9.27554 9.14897e-08 9.375V10.125C9.14897e-08 10.2245 0.0395089 10.3198 0.109835 10.3902C0.180161 10.4605 0.275544 10.5 0.375 10.5H10.125C10.2245 10.5 10.3198 10.4605 10.3902 10.3902C10.4605 10.3198 10.5 10.2245 10.5 10.125V9.375C10.5 9.27554 10.4605 9.18016 10.3902 9.10983C10.3198 9.03951 10.2245 9 10.125 9Z" fill="black"/>
</svg>
