<svg width="11" height="12" viewBox="0 0 11 12" fill="none" xmlns="http://www.w3.org/2000/svg">
<path d="M10.625 3.75H0.875C0.775544 3.75 0.680161 3.78951 0.609835 3.85984C0.539509 3.93016 0.5 4.02554 0.5 4.125L0.5 4.875C0.5 4.97446 0.539509 5.06984 0.609835 5.14016C0.680161 5.21049 0.775544 5.25 0.875 5.25H10.625C10.7245 5.25 10.8198 5.21049 10.8902 5.14016C10.9605 5.06984 11 4.97446 11 4.875V4.125C11 4.02554 10.9605 3.93016 10.8902 3.85984C10.8198 3.78951 10.7245 3.75 10.625 3.75ZM10.625 9.75H0.875C0.775544 9.75 0.680161 9.78951 0.609835 9.85983C0.539509 9.93016 0.5 10.0255 0.5 10.125L0.5 10.875C0.5 10.9745 0.539509 11.0698 0.609835 11.1402C0.680161 11.2105 0.775544 11.25 0.875 11.25H10.625C10.7245 11.25 10.8198 11.2105 10.8902 11.1402C10.9605 11.0698 11 10.9745 11 10.875V10.125C11 10.0255 10.9605 9.93016 10.8902 9.85983C10.8198 9.78951 10.7245 9.75 10.625 9.75ZM3.03359 2.25H8.46664C8.50387 2.25 8.54074 2.24266 8.57513 2.22841C8.60953 2.21415 8.64077 2.19326 8.66709 2.16692C8.6934 2.14059 8.71427 2.10932 8.7285 2.07492C8.74272 2.04051 8.75003 2.00364 8.75 1.96641V1.03336C8.75 0.996148 8.74267 0.959301 8.72843 0.924923C8.71419 0.890544 8.69332 0.859307 8.66701 0.832994C8.64069 0.806682 8.60946 0.78581 8.57508 0.77157C8.5407 0.757329 8.50385 0.75 8.46664 0.75H3.03359C2.99636 0.749969 2.95949 0.757276 2.92508 0.771502C2.89068 0.785729 2.85941 0.806596 2.83308 0.832911C2.80674 0.859227 2.78585 0.890474 2.77159 0.924868C2.75734 0.959262 2.75 0.996128 2.75 1.03336V1.96641C2.75 2.04162 2.77988 2.11375 2.83306 2.16694C2.88625 2.22012 2.95838 2.25 3.03359 2.25ZM8.46664 8.25C8.50387 8.25 8.54074 8.24266 8.57513 8.22841C8.60953 8.21415 8.64077 8.19326 8.66709 8.16692C8.6934 8.14059 8.71427 8.10932 8.7285 8.07492C8.74272 8.04051 8.75003 8.00364 8.75 7.96641V7.03336C8.75 6.95821 8.72015 6.88613 8.66701 6.83299C8.61387 6.77985 8.54179 6.75 8.46664 6.75H3.03359C2.99636 6.74997 2.95949 6.75728 2.92508 6.7715C2.89068 6.78573 2.85941 6.8066 2.83308 6.83291C2.80674 6.85923 2.78585 6.89047 2.77159 6.92487C2.75734 6.95926 2.75 6.99613 2.75 7.03336V7.96641C2.75 8.00365 2.75734 8.04053 2.77159 8.07493C2.78584 8.10934 2.80673 8.1406 2.83306 8.16694C2.8594 8.19327 2.89066 8.21416 2.92507 8.22841C2.95947 8.24267 2.99635 8.25 3.03359 8.25H8.46664Z" fill="black"/>
</svg>
