<svg viewBox="0 0 11 12" fill="none" xmlns="http://www.w3.org/2000/svg" class="size-6">
<path d="M0.640078 8.51484L2.89008 6.26484C2.96035 6.19452 2.99983 6.09918 2.99983 5.99977C2.99983 5.90035 2.96035 5.80501 2.89008 5.73469L0.640078 3.48469C0.404766 3.24984 0 3.41672 0 3.75V8.25C0 8.58539 0.406172 8.74922 0.640078 8.51484ZM10.125 9.75H0.375C0.275544 9.75 0.180161 9.78951 0.109835 9.85983C0.0395088 9.93016 0 10.0255 0 10.125L0 10.875C0 10.9745 0.0395088 11.0698 0.109835 11.1402C0.180161 11.2105 0.275544 11.25 0.375 11.25H10.125C10.2245 11.25 10.3198 11.2105 10.3902 11.1402C10.4605 11.0698 10.5 10.9745 10.5 10.875V10.125C10.5 10.0255 10.4605 9.93016 10.3902 9.85983C10.3198 9.78951 10.2245 9.75 10.125 9.75ZM10.1993 6.75H4.8007C4.76121 6.74997 4.72209 6.75773 4.68559 6.77283C4.6491 6.78793 4.61593 6.81008 4.58801 6.83801C4.56008 6.86593 4.53793 6.8991 4.52283 6.93559C4.50773 6.97209 4.49997 7.01121 4.5 7.0507V7.9493C4.49997 7.98879 4.50773 8.02791 4.52283 8.06441C4.53793 8.1009 4.56008 8.13407 4.58801 8.16199C4.61593 8.18992 4.6491 8.21207 4.68559 8.22717C4.72209 8.24227 4.76121 8.25003 4.8007 8.25H10.1993C10.2388 8.25003 10.2779 8.24227 10.3144 8.22717C10.3509 8.21207 10.3841 8.18992 10.412 8.16199C10.4399 8.13407 10.4621 8.1009 10.4772 8.06441C10.4923 8.02791 10.5 7.98879 10.5 7.9493V7.0507C10.5 7.01121 10.4923 6.97209 10.4772 6.93559C10.4621 6.8991 10.4399 6.86593 10.412 6.83801C10.3841 6.81008 10.3509 6.78793 10.3144 6.77283C10.2779 6.75773 10.2388 6.74997 10.1993 6.75ZM10.1993 3.75H4.8007C4.76121 3.74997 4.72209 3.75773 4.68559 3.77283C4.6491 3.78793 4.61593 3.81008 4.58801 3.83801C4.56008 3.86593 4.53793 3.8991 4.52283 3.93559C4.50773 3.97209 4.49997 4.01121 4.5 4.0507V4.9493C4.49997 4.98879 4.50773 5.02791 4.52283 5.06441C4.53793 5.1009 4.56008 5.13407 4.58801 5.16199C4.61593 5.18992 4.6491 5.21207 4.68559 5.22717C4.72209 5.24227 4.76121 5.25003 4.8007 5.25H10.1993C10.2388 5.25003 10.2779 5.24227 10.3144 5.22717C10.3509 5.21207 10.3841 5.18992 10.412 5.16199C10.4399 5.13407 10.4621 5.1009 10.4772 5.06441C10.4923 5.02791 10.5 4.98879 10.5 4.9493V4.0507C10.5 4.01121 10.4923 3.97209 10.4772 3.93559C10.4621 3.8991 10.4399 3.86593 10.412 3.83801C10.3841 3.81008 10.3509 3.78793 10.3144 3.77283C10.2779 3.75773 10.2388 3.74997 10.1993 3.75ZM10.125 0.75H0.375C0.275544 0.75 0.180161 0.789509 0.109835 0.859835C0.0395088 0.930161 0 1.02554 0 1.125L0 1.875C0 1.97446 0.0395088 2.06984 0.109835 2.14016C0.180161 2.21049 0.275544 2.25 0.375 2.25H10.125C10.2245 2.25 10.3198 2.21049 10.3902 2.14016C10.4605 2.06984 10.5 1.97446 10.5 1.875V1.125C10.5 1.02554 10.4605 0.930161 10.3902 0.859835C10.3198 0.789509 10.2245 0.75 10.125 0.75Z" fill="black"/>
</svg>
