<svg width="12" height="12" viewBox="0 0 12 12" fill="none" xmlns="http://www.w3.org/2000/svg">
<path d="M4.85368 1.61081L1.31818 5.14631C1.13071 5.33384 1.02539 5.58814 1.02539 5.85331C1.02539 6.11847 1.13071 6.37278 1.31818 6.56031L4.14618 9.38881C4.23905 9.48178 4.34934 9.55554 4.47074 9.60587C4.59213 9.65619 4.72226 9.68209 4.85368 9.68209C4.98509 9.68209 5.11522 9.65619 5.23662 9.60587C5.35802 9.55554 5.4683 9.48178 5.56118 9.38881L9.09618 5.85331L4.85368 1.61081ZM4.85368 1.61081L4.14668 0.903809" stroke="black" stroke-width="0.75" stroke-linecap="round" stroke-linejoin="round"/>
<path d="M10 7.5C10 7.5 11.5 8.9965 11.5 9.9435C11.5 10.771 10.8275 11.4435 10 11.4435C9.1725 11.4435 8.506 10.771 8.5 9.9435C8.505 8.996 10 7.5 10 7.5Z" stroke="black" stroke-width="0.75" stroke-miterlimit="1.5" stroke-linecap="round" stroke-linejoin="round"/>
</svg>
