<svg viewBox="0 0 11 12" fill="none" xmlns="http://www.w3.org/2000/svg" class="size-6">
<path d="M10.125 9.75H0.375C0.275544 9.75 0.180161 9.78951 0.109835 9.85983C0.0395088 9.93016 0 10.0255 0 10.125L0 10.875C0 10.9745 0.0395088 11.0698 0.109835 11.1402C0.180161 11.2105 0.275544 11.25 0.375 11.25H10.125C10.2245 11.25 10.3198 11.2105 10.3902 11.1402C10.4605 11.0698 10.5 10.9745 10.5 10.875V10.125C10.5 10.0255 10.4605 9.93016 10.3902 9.85983C10.3198 9.78951 10.2245 9.75 10.125 9.75ZM10.125 6.75H0.375C0.275544 6.75 0.180161 6.78951 0.109835 6.85983C0.0395088 6.93016 0 7.02554 0 7.125L0 7.875C0 7.97446 0.0395088 8.06984 0.109835 8.14017C0.180161 8.21049 0.275544 8.25 0.375 8.25H10.125C10.2245 8.25 10.3198 8.21049 10.3902 8.14017C10.4605 8.06984 10.5 7.97446 10.5 7.875V7.125C10.5 7.02554 10.4605 6.93016 10.3902 6.85983C10.3198 6.78951 10.2245 6.75 10.125 6.75ZM10.125 3.75H0.375C0.275544 3.75 0.180161 3.78951 0.109835 3.85984C0.0395088 3.93016 0 4.02554 0 4.125L0 4.875C0 4.97446 0.0395088 5.06984 0.109835 5.14016C0.180161 5.21049 0.275544 5.25 0.375 5.25H10.125C10.2245 5.25 10.3198 5.21049 10.3902 5.14016C10.4605 5.06984 10.5 4.97446 10.5 4.875V4.125C10.5 4.02554 10.4605 3.93016 10.3902 3.85984C10.3198 3.78951 10.2245 3.75 10.125 3.75ZM10.125 0.75H0.375C0.275544 0.75 0.180161 0.789509 0.109835 0.859835C0.0395088 0.930161 0 1.02554 0 1.125L0 1.875C0 1.97446 0.0395088 2.06984 0.109835 2.14016C0.180161 2.21049 0.275544 2.25 0.375 2.25H10.125C10.2245 2.25 10.3198 2.21049 10.3902 2.14016C10.4605 2.06984 10.5 1.97446 10.5 1.875V1.125C10.5 1.02554 10.4605 0.930161 10.3902 0.859835C10.3198 0.789509 10.2245 0.75 10.125 0.75Z" fill="black"/>
</svg>
