<svg viewBox="0 0 10 8" fill="none" xmlns="http://www.w3.org/2000/svg" class="size-6">
<path d="M9.6875 0.25H2.84375C2.79219 0.25 2.75 0.292187 2.75 0.34375V1C2.75 1.05156 2.79219 1.09375 2.84375 1.09375H9.6875C9.73906 1.09375 9.78125 1.05156 9.78125 1V0.34375C9.78125 0.292187 9.73906 0.25 9.6875 0.25ZM9.6875 3.57812H2.84375C2.79219 3.57812 2.75 3.62031 2.75 3.67188V4.32812C2.75 4.37969 2.79219 4.42188 2.84375 4.42188H9.6875C9.73906 4.42188 9.78125 4.37969 9.78125 4.32812V3.67188C9.78125 3.62031 9.73906 3.57812 9.6875 3.57812ZM9.6875 6.90625H2.84375C2.79219 6.90625 2.75 6.94844 2.75 7V7.65625C2.75 7.70781 2.79219 7.75 2.84375 7.75H9.6875C9.73906 7.75 9.78125 7.70781 9.78125 7.65625V7C9.78125 6.94844 9.73906 6.90625 9.6875 6.90625ZM0.21875 0.671875C0.21875 0.758055 0.235724 0.843391 0.268704 0.923011C0.301684 1.00263 0.350023 1.07498 0.410961 1.13591C0.4719 1.19685 0.544244 1.24519 0.623864 1.27817C0.703484 1.31115 0.78882 1.32813 0.875 1.32812C0.96118 1.32813 1.04652 1.31115 1.12614 1.27817C1.20576 1.24519 1.2781 1.19685 1.33904 1.13591C1.39998 1.07498 1.44832 1.00263 1.4813 0.923011C1.51428 0.843391 1.53125 0.758055 1.53125 0.671875C1.53125 0.585695 1.51428 0.500359 1.4813 0.420739C1.44832 0.341119 1.39998 0.268775 1.33904 0.207836C1.2781 0.146898 1.20576 0.0985586 1.12614 0.065579C1.04652 0.0325993 0.96118 0.015625 0.875 0.015625C0.78882 0.015625 0.703484 0.0325993 0.623864 0.065579C0.544244 0.0985586 0.4719 0.146898 0.410961 0.207836C0.350023 0.268775 0.301684 0.341119 0.268704 0.420739C0.235724 0.500359 0.21875 0.585695 0.21875 0.671875ZM0.21875 4C0.21875 4.08618 0.235724 4.17152 0.268704 4.25114C0.301684 4.33076 0.350023 4.4031 0.410961 4.46404C0.4719 4.52498 0.544244 4.57332 0.623864 4.6063C0.703484 4.63928 0.78882 4.65625 0.875 4.65625C0.96118 4.65625 1.04652 4.63928 1.12614 4.6063C1.20576 4.57332 1.2781 4.52498 1.33904 4.46404C1.39998 4.4031 1.44832 4.33076 1.4813 4.25114C1.51428 4.17152 1.53125 4.08618 1.53125 4C1.53125 3.91382 1.51428 3.82848 1.4813 3.74886C1.44832 3.66924 1.39998 3.5969 1.33904 3.53596C1.2781 3.47502 1.20576 3.42668 1.12614 3.3937C1.04652 3.36072 0.96118 3.34375 0.875 3.34375C0.78882 3.34375 0.703484 3.36072 0.623864 3.3937C0.544244 3.42668 0.4719 3.47502 0.410961 3.53596C0.350023 3.5969 0.301684 3.66924 0.268704 3.74886C0.235724 3.82848 0.21875 3.91382 0.21875 4ZM0.21875 7.32812C0.21875 7.4143 0.235724 7.49964 0.268704 7.57926C0.301684 7.65888 0.350023 7.73123 0.410961 7.79216C0.4719 7.8531 0.544244 7.90144 0.623864 7.93442C0.703484 7.9674 0.78882 7.98438 0.875 7.98438C0.96118 7.98438 1.04652 7.9674 1.12614 7.93442C1.20576 7.90144 1.2781 7.8531 1.33904 7.79216C1.39998 7.73123 1.44832 7.65888 1.4813 7.57926C1.51428 7.49964 1.53125 7.4143 1.53125 7.32812C1.53125 7.24195 1.51428 7.15661 1.4813 7.07699C1.44832 6.99737 1.39998 6.92502 1.33904 6.86409C1.2781 6.80315 1.20576 6.75481 1.12614 6.72183C1.04652 6.68885 0.96118 6.67188 0.875 6.67188C0.78882 6.67188 0.703484 6.68885 0.623864 6.72183C0.544244 6.75481 0.4719 6.80315 0.410961 6.86409C0.350023 6.92502 0.301684 6.99737 0.268704 7.07699C0.235724 7.15661 0.21875 7.24195 0.21875 7.32812Z" fill="black"/>
</svg>
