<svg xmlns="http://www.w3.org/2000/svg" xmlns:xlink="http://www.w3.org/1999/xlink" width="96" zoomAndPan="magnify" viewBox="0 0 72 36.000001" height="48" preserveAspectRatio="xMidYMid meet" version="1.0"><defs><g/></defs><g fill="#000000" fill-opacity="1"><g transform="translate(8.302195, 22.986488)"><g><path d="M 1.015625 -10.703125 L 4.25 -10.703125 L 6.921875 -5.515625 L 9.546875 -10.703125 L 12.78125 -10.703125 L 12.78125 0 L 9.546875 0 L 9.546875 -5.71875 L 7.5625 -1.96875 L 6.234375 -1.96875 L 4.25 -5.71875 L 4.25 0 L 1.015625 0 Z M 1.015625 -10.703125 "/></g></g></g><g fill="#000000" fill-opacity="1"><g transform="translate(22.107311, 22.986488)"><g><path d="M 3.515625 0.125 C 2.640625 0.125 1.957031 -0.15625 1.46875 -0.71875 C 0.988281 -1.28125 0.75 -2.039062 0.75 -3 L 0.75 -7.796875 L 4.046875 -7.796875 L 4.046875 -3.140625 C 4.046875 -2.898438 4.109375 -2.710938 4.234375 -2.578125 C 4.367188 -2.453125 4.539062 -2.390625 4.75 -2.390625 C 4.957031 -2.390625 5.171875 -2.453125 5.390625 -2.578125 L 5.5625 -0.421875 C 5.332031 -0.242188 5.03125 -0.109375 4.65625 -0.015625 C 4.289062 0.078125 3.910156 0.125 3.515625 0.125 Z M 2.390625 -8.96875 C 1.898438 -8.96875 1.488281 -9.117188 1.15625 -9.421875 C 0.820312 -9.722656 0.65625 -10.097656 0.65625 -10.546875 C 0.65625 -10.992188 0.828125 -11.367188 1.171875 -11.671875 C 1.523438 -11.972656 1.929688 -12.125 2.390625 -12.125 C 2.867188 -12.125 3.28125 -11.96875 3.625 -11.65625 C 3.976562 -11.34375 4.15625 -10.972656 4.15625 -10.546875 C 4.15625 -10.085938 3.976562 -9.707031 3.625 -9.40625 C 3.269531 -9.113281 2.859375 -8.96875 2.390625 -8.96875 Z M 2.390625 -8.96875 "/></g></g></g><g fill="#000000" fill-opacity="1"><g transform="translate(27.788103, 22.986488)"><g><path d="M 3.46875 0.125 C 2.382812 0.125 1.429688 -0.0351562 0.609375 -0.359375 L 0.96875 -2.203125 C 1.707031 -1.941406 2.429688 -1.8125 3.140625 -1.8125 C 3.660156 -1.8125 3.921875 -1.953125 3.921875 -2.234375 C 3.921875 -2.378906 3.84375 -2.5 3.6875 -2.59375 C 3.539062 -2.6875 3.257812 -2.769531 2.84375 -2.84375 C 1.988281 -3.007812 1.367188 -3.289062 0.984375 -3.6875 C 0.609375 -4.082031 0.421875 -4.644531 0.421875 -5.375 C 0.460938 -6.1875 0.785156 -6.8125 1.390625 -7.25 C 2.003906 -7.6875 2.84375 -7.90625 3.90625 -7.90625 C 4.445312 -7.90625 4.910156 -7.867188 5.296875 -7.796875 C 5.679688 -7.734375 6.035156 -7.625 6.359375 -7.46875 L 6.03125 -5.625 C 5.738281 -5.738281 5.410156 -5.820312 5.046875 -5.875 C 4.691406 -5.9375 4.394531 -5.96875 4.15625 -5.96875 C 3.800781 -5.96875 3.554688 -5.929688 3.421875 -5.859375 C 3.285156 -5.796875 3.21875 -5.703125 3.21875 -5.578125 C 3.21875 -5.347656 3.476562 -5.1875 4 -5.09375 C 4.945312 -4.925781 5.648438 -4.632812 6.109375 -4.21875 C 6.578125 -3.800781 6.8125 -3.234375 6.8125 -2.515625 C 6.8125 -1.703125 6.523438 -1.054688 5.953125 -0.578125 C 5.378906 -0.109375 4.550781 0.125 3.46875 0.125 Z M 3.46875 0.125 "/></g></g></g><g fill="#000000" fill-opacity="1"><g transform="translate(34.978595, 22.986488)"><g><path d="M 3.46875 0.125 C 2.382812 0.125 1.429688 -0.0351562 0.609375 -0.359375 L 0.96875 -2.203125 C 1.707031 -1.941406 2.429688 -1.8125 3.140625 -1.8125 C 3.660156 -1.8125 3.921875 -1.953125 3.921875 -2.234375 C 3.921875 -2.378906 3.84375 -2.5 3.6875 -2.59375 C 3.539062 -2.6875 3.257812 -2.769531 2.84375 -2.84375 C 1.988281 -3.007812 1.367188 -3.289062 0.984375 -3.6875 C 0.609375 -4.082031 0.421875 -4.644531 0.421875 -5.375 C 0.460938 -6.1875 0.785156 -6.8125 1.390625 -7.25 C 2.003906 -7.6875 2.84375 -7.90625 3.90625 -7.90625 C 4.445312 -7.90625 4.910156 -7.867188 5.296875 -7.796875 C 5.679688 -7.734375 6.035156 -7.625 6.359375 -7.46875 L 6.03125 -5.625 C 5.738281 -5.738281 5.410156 -5.820312 5.046875 -5.875 C 4.691406 -5.9375 4.394531 -5.96875 4.15625 -5.96875 C 3.800781 -5.96875 3.554688 -5.929688 3.421875 -5.859375 C 3.285156 -5.796875 3.21875 -5.703125 3.21875 -5.578125 C 3.21875 -5.347656 3.476562 -5.1875 4 -5.09375 C 4.945312 -4.925781 5.648438 -4.632812 6.109375 -4.21875 C 6.578125 -3.800781 6.8125 -3.234375 6.8125 -2.515625 C 6.8125 -1.703125 6.523438 -1.054688 5.953125 -0.578125 C 5.378906 -0.109375 4.550781 0.125 3.46875 0.125 Z M 3.46875 0.125 "/></g></g></g><g fill="#000000" fill-opacity="1"><g transform="translate(42.169088, 22.986488)"><g><path d="M 0.78125 -10.25 L 4.0625 -10.734375 L 4.0625 -6.1875 C 4.289062 -6.738281 4.632812 -7.160156 5.09375 -7.453125 C 5.5625 -7.753906 6.117188 -7.90625 6.765625 -7.90625 C 7.765625 -7.90625 8.546875 -7.550781 9.109375 -6.84375 C 9.671875 -6.132812 9.953125 -5.148438 9.953125 -3.890625 L 9.953125 0 L 6.6875 0 L 6.6875 -4.21875 C 6.6875 -4.664062 6.585938 -5.007812 6.390625 -5.25 C 6.203125 -5.488281 5.941406 -5.609375 5.609375 -5.609375 C 5.359375 -5.609375 5.113281 -5.523438 4.875 -5.359375 C 4.632812 -5.203125 4.4375 -4.972656 4.28125 -4.671875 C 4.132812 -4.367188 4.0625 -4.023438 4.0625 -3.640625 L 4.0625 0 L 0.78125 0 Z M 0.78125 -10.25 "/></g></g></g><g fill="#000000" fill-opacity="1"><g transform="translate(52.861439, 22.986488)"><g><path d="M 4.21875 0.125 C 3.539062 0.125 2.910156 -0.0507812 2.328125 -0.40625 C 1.742188 -0.769531 1.273438 -1.257812 0.921875 -1.875 C 0.566406 -2.488281 0.390625 -3.175781 0.390625 -3.9375 C 0.390625 -4.6875 0.566406 -5.363281 0.921875 -5.96875 C 1.273438 -6.570312 1.742188 -7.046875 2.328125 -7.390625 C 2.921875 -7.734375 3.550781 -7.90625 4.21875 -7.90625 C 4.757812 -7.90625 5.257812 -7.753906 5.71875 -7.453125 C 6.175781 -7.148438 6.523438 -6.695312 6.765625 -6.09375 L 6.765625 -7.90625 L 10.03125 -7.90625 L 10.03125 0 L 6.765625 0 L 6.765625 -1.453125 C 6.242188 -0.398438 5.394531 0.125 4.21875 0.125 Z M 5.234375 -2.328125 C 5.640625 -2.328125 5.988281 -2.472656 6.28125 -2.765625 C 6.582031 -3.066406 6.742188 -3.421875 6.765625 -3.828125 L 6.765625 -3.953125 C 6.742188 -4.367188 6.582031 -4.722656 6.28125 -5.015625 C 5.976562 -5.304688 5.628906 -5.453125 5.234375 -5.453125 C 4.796875 -5.453125 4.421875 -5.296875 4.109375 -4.984375 C 3.804688 -4.679688 3.65625 -4.316406 3.65625 -3.890625 C 3.65625 -3.453125 3.8125 -3.082031 4.125 -2.78125 C 4.4375 -2.476562 4.804688 -2.328125 5.234375 -2.328125 Z M 5.234375 -2.328125 "/></g></g></g></svg>